<?xml version="1.0" encoding="UTF-8"?>
<!DOCTYPE svg PUBLIC "-//W3C//DTD SVG 1.1//EN" "http://www.w3.org/Graphics/SVG/1.1/DTD/svg11.dtd">
<!-- Creator: CorelDRAW X6 -->
<svg xmlns="http://www.w3.org/2000/svg" xml:space="preserve" width="10.0417in" height="4.45833in" version="1.1" style="shape-rendering:geometricPrecision; text-rendering:geometricPrecision; image-rendering:optimizeQuality; fill-rule:evenodd; clip-rule:evenodd"
viewBox="0 0 10042 4458"
 xmlns:xlink="http://www.w3.org/1999/xlink">
 <defs>
  <style type="text/css">
   <![CDATA[
    .str1 {stroke:#FAFEFE;stroke-width:3.47244}
    .str0 {stroke:#E33237;stroke-width:116.996}
    .fil1 {fill:none;fill-rule:nonzero}
    .fil0 {fill:#E33237;fill-rule:nonzero}
    .fil2 {fill:#FAFEFE;fill-rule:nonzero}
   ]]>
  </style>
 </defs>
 <g id="Layer_x0020_1">
  <metadata id="CorelCorpID_0Corel-Layer"/>
  <polygon class="fil0" points="58,4400 9994,4400 9994,53 58,53 "/>
  <polygon class="fil1 str0" points="58,4400 9994,4400 9994,53 58,53 "/>
  <path class="fil2" d="M1294 1522c0,209 0,381 11,473 6,63 20,111 85,120 31,4 78,9 98,9 13,0 17,7 17,13 0,11 -11,17 -35,17 -120,0 -257,-7 -268,-7 -11,0 -148,7 -213,7 -24,0 -35,-4 -35,-17 0,-7 4,-13 17,-13 20,0 46,-4 65,-9 44,-9 54,-57 63,-120 11,-91 11,-263 11,-473l0 -921 -322 4c-135,2 -187,17 -222,70 -24,37 -30,52 -37,67 -6,17 -13,22 -22,22 -7,0 -11,-7 -11,-20 0,-22 44,-209 48,-226 4,-13 13,-41 22,-41 15,0 37,22 96,26 63,6 146,11 172,11l816 0c70,0 120,-4 155,-11 33,-4 52,-11 61,-11 11,0 11,13 11,26 0,65 -6,216 -6,239 0,20 -7,28 -15,28 -11,0 -15,-7 -17,-37l-2 -24c-7,-65 -59,-115 -268,-120l-274 -4 0 921z"/>
  <path class="fil2" d="M2686 1732c0,140 0,255 7,316 4,42 13,74 57,80 20,3 52,6 65,6 9,0 12,4 12,9 0,7 -7,12 -23,12 -80,0 -172,-4 -179,-4 -7,0 -99,4 -143,4 -16,0 -23,-3 -23,-12 0,-4 3,-9 12,-9 13,0 31,-3 44,-6 29,-6 36,-38 42,-80 7,-61 7,-176 7,-316l0 -153c0,-6 -4,-9 -9,-9l-617 0c-4,0 -9,2 -9,9l0 153c0,140 0,255 7,316 4,42 13,74 57,80 20,3 52,6 65,6 9,0 12,4 12,9 0,7 -7,12 -23,12 -80,0 -172,-4 -179,-4 -7,0 -99,4 -142,4 -16,0 -23,-3 -23,-12 0,-4 3,-9 12,-9 13,0 31,-3 44,-6 29,-6 36,-38 42,-80 7,-61 7,-176 7,-316l0 -256c0,-227 0,-267 -3,-314 -3,-49 -14,-73 -63,-83 -12,-3 -36,-4 -49,-4 -6,0 -12,-3 -12,-9 0,-9 7,-12 23,-12 65,0 157,4 164,4 7,0 99,-4 143,-4 16,0 23,3 23,12 0,6 -6,9 -12,9 -10,0 -19,1 -36,4 -39,7 -51,32 -54,83 -3,47 -3,87 -3,314l0 31c0,7 4,9 9,9l617 0c4,0 9,-1 9,-9l0 -31c0,-227 0,-267 -3,-314 -3,-49 -15,-73 -62,-83 -12,-3 -36,-4 -49,-4 -6,0 -12,-3 -12,-9 0,-9 7,-12 23,-12 65,0 157,4 164,4 7,0 99,-4 142,-4 16,0 23,3 23,12 0,6 -6,9 -12,9 -10,0 -19,1 -36,4 -39,7 -51,32 -54,83 -3,47 -3,87 -3,314l0 256z"/>
  <path class="fil1 str1" d="M2686 1732c0,140 0,255 7,316 4,42 13,74 57,80 20,3 52,6 65,6 9,0 12,4 12,9 0,7 -7,12 -23,12 -80,0 -172,-4 -179,-4 -7,0 -99,4 -143,4 -16,0 -23,-3 -23,-12 0,-4 3,-9 12,-9 13,0 31,-3 44,-6 29,-6 36,-38 42,-80 7,-61 7,-176 7,-316l0 -153c0,-6 -4,-9 -9,-9l-617 0c-4,0 -9,2 -9,9l0 153c0,140 0,255 7,316 4,42 13,74 57,80 20,3 52,6 65,6 9,0 12,4 12,9 0,7 -7,12 -23,12 -80,0 -172,-4 -179,-4 -7,0 -99,4 -142,4 -16,0 -23,-3 -23,-12 0,-4 3,-9 12,-9 13,0 31,-3 44,-6 29,-6 36,-38 42,-80 7,-61 7,-176 7,-316l0 -256c0,-227 0,-267 -3,-314 -3,-49 -14,-73 -63,-83 -12,-3 -36,-4 -49,-4 -6,0 -12,-3 -12,-9 0,-9 7,-12 23,-12 65,0 157,4 164,4 7,0 99,-4 143,-4 16,0 23,3 23,12 0,6 -6,9 -12,9 -10,0 -19,1 -36,4 -39,7 -51,32 -54,83 -3,47 -3,87 -3,314l0 31c0,7 4,9 9,9l617 0c4,0 9,-1 9,-9l0 -31c0,-227 0,-267 -3,-314 -3,-49 -15,-73 -62,-83 -12,-3 -36,-4 -49,-4 -6,0 -12,-3 -12,-9 0,-9 7,-12 23,-12 65,0 157,4 164,4 7,0 99,-4 142,-4 16,0 23,3 23,12 0,6 -6,9 -12,9 -10,0 -19,1 -36,4 -39,7 -51,32 -54,83 -3,47 -3,87 -3,314l0 256z"/>
  <path class="fil2" d="M3532 2119c131,0 401,-76 401,-499 0,-349 -212,-537 -442,-537 -243,0 -425,160 -425,478 0,339 204,557 465,557zm-31 -1085c327,0 571,206 571,545 0,326 -230,595 -580,595 -398,0 -564,-310 -564,-572 0,-236 172,-569 573,-569z"/>
  <path class="fil1 str1" d="M3532 2119c131,0 401,-76 401,-499 0,-349 -212,-537 -442,-537 -243,0 -425,160 -425,478 0,339 204,557 465,557zm-31 -1085c327,0 571,206 571,545 0,326 -230,595 -580,595 -398,0 -564,-310 -564,-572 0,-236 172,-569 573,-569z"/>
  <path class="fil2" d="M5420 1971c6,52 16,134 79,154 42,13 80,13 94,13 7,0 12,1 12,7 0,9 -13,13 -31,13 -32,0 -189,-4 -243,-9 -34,-3 -41,-7 -41,-15 0,-6 3,-9 10,-10 7,-1 9,-26 6,-52l-70 -750 -4 0 -356 756c-30,64 -35,77 -48,77 -10,0 -17,-14 -45,-67 -38,-71 -163,-323 -170,-337 -13,-26 -176,-375 -192,-415l-6 0 -58 675c-1,23 -1,50 -1,74 0,22 16,41 38,45 25,6 46,7 55,7 6,0 12,3 12,7 0,10 -9,13 -26,13 -54,0 -124,-4 -135,-4 -13,0 -83,4 -122,4 -14,0 -25,-3 -25,-13 0,-4 7,-7 15,-7 12,0 22,0 44,-4 48,-9 52,-65 58,-121l105 -948c1,-16 7,-26 16,-26 9,0 15,6 22,22l445 915 428 -913c6,-13 12,-23 22,-23 10,0 15,12 17,39l97 893z"/>
  <path class="fil1 str1" d="M5420 1971c6,52 16,134 79,154 42,13 80,13 94,13 7,0 12,1 12,7 0,9 -13,13 -31,13 -32,0 -189,-4 -243,-9 -34,-3 -41,-7 -41,-15 0,-6 3,-9 10,-10 7,-1 9,-26 6,-52l-70 -750 -4 0 -356 756c-30,64 -35,77 -48,77 -10,0 -17,-14 -45,-67 -38,-71 -163,-323 -170,-337 -13,-26 -176,-375 -192,-415l-6 0 -58 675c-1,23 -1,50 -1,74 0,22 16,41 38,45 25,6 46,7 55,7 6,0 12,3 12,7 0,10 -9,13 -26,13 -54,0 -124,-4 -135,-4 -13,0 -83,4 -122,4 -14,0 -25,-3 -25,-13 0,-4 7,-7 15,-7 12,0 22,0 44,-4 48,-9 52,-65 58,-121l105 -948c1,-16 7,-26 16,-26 9,0 15,6 22,22l445 915 428 -913c6,-13 12,-23 22,-23 10,0 15,12 17,39l97 893z"/>
  <path class="fil2" d="M5792 1476c0,-227 0,-267 -3,-314 -3,-49 -15,-73 -63,-83 -12,-3 -36,-4 -49,-4 -6,0 -12,-3 -12,-9 0,-9 7,-12 23,-12 65,0 153,4 164,4 32,0 116,-4 183,-4 182,0 247,61 271,83 32,31 73,96 73,173 0,206 -151,346 -358,346 -7,0 -23,0 -31,-1 -7,0 -16,-3 -16,-10 0,-12 9,-13 39,-13 141,0 252,-103 252,-237 0,-48 -4,-145 -81,-224 -77,-79 -166,-73 -199,-73 -25,0 -50,3 -63,9 -9,3 -12,13 -12,28l0 598c0,140 0,255 7,316 4,42 13,74 57,80 20,3 52,6 65,6 9,0 12,4 12,9 0,7 -7,12 -23,12 -80,0 -172,-4 -179,-4 -4,0 -96,4 -140,4 -16,0 -23,-3 -23,-12 0,-4 3,-9 12,-9 13,0 31,-3 44,-6 29,-6 36,-38 42,-80 7,-61 7,-176 7,-316l0 -256z"/>
  <path class="fil1 str1" d="M5792 1476c0,-227 0,-267 -3,-314 -3,-49 -15,-73 -63,-83 -12,-3 -36,-4 -49,-4 -6,0 -12,-3 -12,-9 0,-9 7,-12 23,-12 65,0 153,4 164,4 32,0 116,-4 183,-4 182,0 247,61 271,83 32,31 73,96 73,173 0,206 -151,346 -358,346 -7,0 -23,0 -31,-1 -7,0 -16,-3 -16,-10 0,-12 9,-13 39,-13 141,0 252,-103 252,-237 0,-48 -4,-145 -81,-224 -77,-79 -166,-73 -199,-73 -25,0 -50,3 -63,9 -9,3 -12,13 -12,28l0 598c0,140 0,255 7,316 4,42 13,74 57,80 20,3 52,6 65,6 9,0 12,4 12,9 0,7 -7,12 -23,12 -80,0 -172,-4 -179,-4 -4,0 -96,4 -140,4 -16,0 -23,-3 -23,-12 0,-4 3,-9 12,-9 13,0 31,-3 44,-6 29,-6 36,-38 42,-80 7,-61 7,-176 7,-316l0 -256z"/>
  <path class="fil2" d="M6567 2135c-20,-10 -22,-16 -22,-55 0,-73 6,-131 7,-154 1,-16 4,-23 12,-23 9,0 10,4 10,16 0,13 0,33 4,54 22,108 118,148 215,148 140,0 208,-100 208,-193 0,-100 -42,-158 -167,-262l-66 -54c-154,-126 -189,-217 -189,-316 0,-156 116,-262 301,-262 57,0 99,6 135,15 28,6 39,7 51,7 12,0 15,3 15,10 0,7 -6,55 -6,154 0,23 -3,33 -10,33 -9,0 -10,-7 -12,-19 -1,-17 -10,-57 -19,-73 -9,-16 -48,-77 -182,-77 -100,0 -179,63 -179,169 0,83 38,135 177,244l41 32c172,135 212,225 212,342 0,60 -23,170 -124,241 -62,44 -141,61 -220,61 -68,0 -135,-10 -195,-39z"/>
  <path class="fil1 str1" d="M6567 2135c-20,-10 -22,-16 -22,-55 0,-73 6,-131 7,-154 1,-16 4,-23 12,-23 9,0 10,4 10,16 0,13 0,33 4,54 22,108 118,148 215,148 140,0 208,-100 208,-193 0,-100 -42,-158 -167,-262l-66 -54c-154,-126 -189,-217 -189,-316 0,-156 116,-262 301,-262 57,0 99,6 135,15 28,6 39,7 51,7 12,0 15,3 15,10 0,7 -6,55 -6,154 0,23 -3,33 -10,33 -9,0 -10,-7 -12,-19 -1,-17 -10,-57 -19,-73 -9,-16 -48,-77 -182,-77 -100,0 -179,63 -179,169 0,83 38,135 177,244l41 32c172,135 212,225 212,342 0,60 -23,170 -124,241 -62,44 -141,61 -220,61 -68,0 -135,-10 -195,-39z"/>
  <path class="fil2" d="M7853 2119c131,0 401,-76 401,-499 0,-349 -212,-537 -442,-537 -243,0 -424,160 -424,478 0,339 204,557 465,557zm-30 -1085c327,0 571,206 571,545 0,326 -230,595 -580,595 -399,0 -564,-310 -564,-572 0,-236 172,-569 573,-569z"/>
  <path class="fil1 str1" d="M7853 2119c131,0 401,-76 401,-499 0,-349 -212,-537 -442,-537 -243,0 -424,160 -424,478 0,339 204,557 465,557zm-30 -1085c327,0 571,206 571,545 0,326 -230,595 -580,595 -399,0 -564,-310 -564,-572 0,-236 172,-569 573,-569z"/>
  <path class="fil2" d="M8669 1956c3,119 18,157 57,169 28,7 60,9 73,9 7,0 12,3 12,9 0,9 -9,12 -26,12 -83,0 -141,-4 -154,-4 -13,0 -74,4 -140,4 -15,0 -23,-1 -23,-12 0,-6 4,-9 12,-9 12,0 38,-1 60,-9 36,-10 44,-52 44,-185l1 -833c0,-57 4,-73 16,-73 12,0 36,32 51,47 22,25 238,259 462,499 144,154 303,332 349,380l-16 -739c-1,-95 -11,-127 -57,-138 -26,-6 -60,-7 -71,-7 -10,0 -12,-4 -12,-10 0,-9 12,-10 29,-10 65,0 135,4 151,4 16,0 64,-4 124,-4 16,0 26,2 26,10 0,6 -6,10 -16,10 -7,0 -17,0 -35,4 -48,10 -54,42 -54,129l-3 852c0,96 -3,103 -13,103 -12,0 -29,-16 -106,-93 -16,-15 -225,-228 -380,-394 -169,-182 -333,-365 -380,-417l19 697z"/>
  <path class="fil1 str1" d="M8669 1956c3,119 18,157 57,169 28,7 60,9 73,9 7,0 12,3 12,9 0,9 -9,12 -26,12 -83,0 -141,-4 -154,-4 -13,0 -74,4 -140,4 -15,0 -23,-1 -23,-12 0,-6 4,-9 12,-9 12,0 38,-1 60,-9 36,-10 44,-52 44,-185l1 -833c0,-57 4,-73 16,-73 12,0 36,32 51,47 22,25 238,259 462,499 144,154 303,332 349,380l-16 -739c-1,-95 -11,-127 -57,-138 -26,-6 -60,-7 -71,-7 -10,0 -12,-4 -12,-10 0,-9 12,-10 29,-10 65,0 135,4 151,4 16,0 64,-4 124,-4 16,0 26,2 26,10 0,6 -6,10 -16,10 -7,0 -17,0 -35,4 -48,10 -54,42 -54,129l-3 852c0,96 -3,103 -13,103 -12,0 -29,-16 -106,-93 -16,-15 -225,-228 -380,-394 -169,-182 -333,-365 -380,-417l19 697z"/>
  <path class="fil2" d="M4155 3402c0,211 0,385 11,478 7,64 20,112 86,121 31,5 79,9 99,9 13,0 18,7 18,13 0,11 -11,18 -35,18 -121,0 -260,-7 -271,-7 -11,0 -150,7 -216,7 -24,0 -35,-4 -35,-18 0,-7 4,-13 18,-13 20,0 46,-4 66,-9 44,-9 55,-57 64,-121 11,-93 11,-267 11,-478l0 -231c0,-9 -7,-13 -13,-13l-934 0c-7,0 -13,2 -13,13l0 231c0,211 0,385 11,478 7,64 20,112 86,121 31,5 79,9 99,9 13,0 18,7 18,13 0,11 -11,18 -35,18 -121,0 -260,-7 -271,-7 -11,0 -150,7 -216,7 -24,0 -35,-4 -35,-18 0,-7 4,-13 18,-13 20,0 46,-4 66,-9 44,-9 55,-57 64,-121 11,-93 11,-267 11,-478l0 -388c0,-344 0,-405 -4,-476 -4,-75 -22,-110 -95,-126 -18,-4 -55,-7 -75,-7 -9,0 -18,-4 -18,-13 0,-13 11,-18 35,-18 99,0 238,7 249,7 11,0 150,-7 216,-7 24,0 35,4 35,18 0,9 -9,13 -18,13 -15,0 -29,2 -55,7 -60,11 -77,48 -82,126 -4,70 -4,132 -4,476l0 46c0,11 7,13 13,13l934 0c7,0 13,-2 13,-13l0 -46c0,-344 0,-405 -4,-476 -5,-75 -22,-110 -95,-126 -18,-4 -55,-7 -75,-7 -9,0 -18,-4 -18,-13 0,-13 11,-18 35,-18 99,0 238,7 249,7 11,0 150,-7 216,-7 24,0 35,4 35,18 0,9 -9,13 -18,13 -15,0 -29,2 -55,7 -59,11 -77,48 -82,126 -4,70 -4,132 -4,476l0 388z"/>
  <path class="fil2" d="M4654 3054c0,140 0,254 7,316 4,42 13,74 57,80 20,3 52,6 65,6 9,0 12,4 12,9 0,7 -7,12 -23,12 -80,0 -172,-4 -179,-4 -7,0 -99,4 -143,4 -16,0 -23,-3 -23,-12 0,-4 3,-9 12,-9 13,0 31,-3 44,-6 29,-6 36,-38 42,-80 7,-61 7,-176 7,-316l0 -256c0,-227 0,-268 -3,-314 -3,-49 -17,-74 -49,-81 -16,-4 -35,-6 -45,-6 -6,0 -12,-3 -12,-9 0,-9 7,-12 23,-12 48,0 140,4 147,4 7,0 99,-4 142,-4 16,0 23,3 23,12 0,6 -6,9 -12,9 -10,0 -19,1 -36,4 -39,7 -51,32 -54,83 -3,47 -3,87 -3,314l0 256z"/>
  <path class="fil1 str1" d="M4654 3054c0,140 0,254 7,316 4,42 13,74 57,80 20,3 52,6 65,6 9,0 12,4 12,9 0,7 -7,12 -23,12 -80,0 -172,-4 -179,-4 -7,0 -99,4 -143,4 -16,0 -23,-3 -23,-12 0,-4 3,-9 12,-9 13,0 31,-3 44,-6 29,-6 36,-38 42,-80 7,-61 7,-176 7,-316l0 -256c0,-227 0,-268 -3,-314 -3,-49 -17,-74 -49,-81 -16,-4 -35,-6 -45,-6 -6,0 -12,-3 -12,-9 0,-9 7,-12 23,-12 48,0 140,4 147,4 7,0 99,-4 142,-4 16,0 23,3 23,12 0,6 -6,9 -12,9 -10,0 -19,1 -36,4 -39,7 -51,32 -54,83 -3,47 -3,87 -3,314l0 256z"/>
  <path class="fil2" d="M5138 3278c3,119 17,157 57,169 28,7 60,9 73,9 7,0 12,3 12,9 0,9 -9,12 -26,12 -83,0 -141,-4 -154,-4 -13,0 -74,4 -140,4 -15,0 -23,-1 -23,-12 0,-6 4,-9 12,-9 12,0 38,-2 60,-9 36,-10 44,-52 44,-185l1 -833c0,-57 4,-73 16,-73 12,0 36,32 51,47 22,25 239,259 462,499 144,154 302,332 349,379l-16 -739c-1,-95 -12,-126 -57,-138 -26,-6 -60,-7 -71,-7 -10,0 -12,-4 -12,-10 0,-9 12,-10 29,-10 65,0 135,4 151,4 16,0 64,-4 124,-4 16,0 26,2 26,10 0,6 -6,10 -16,10 -7,0 -17,0 -35,4 -48,10 -54,42 -54,129l-3 852c0,96 -3,103 -13,103 -11,0 -29,-16 -106,-93 -16,-15 -226,-228 -380,-394 -169,-182 -333,-365 -380,-417l19 697z"/>
  <path class="fil1 str1" d="M5138 3278c3,119 17,157 57,169 28,7 60,9 73,9 7,0 12,3 12,9 0,9 -9,12 -26,12 -83,0 -141,-4 -154,-4 -13,0 -74,4 -140,4 -15,0 -23,-1 -23,-12 0,-6 4,-9 12,-9 12,0 38,-2 60,-9 36,-10 44,-52 44,-185l1 -833c0,-57 4,-73 16,-73 12,0 36,32 51,47 22,25 239,259 462,499 144,154 302,332 349,379l-16 -739c-1,-95 -12,-126 -57,-138 -26,-6 -60,-7 -71,-7 -10,0 -12,-4 -12,-10 0,-9 12,-10 29,-10 65,0 135,4 151,4 16,0 64,-4 124,-4 16,0 26,2 26,10 0,6 -6,10 -16,10 -7,0 -17,0 -35,4 -48,10 -54,42 -54,129l-3 852c0,96 -3,103 -13,103 -11,0 -29,-16 -106,-93 -16,-15 -226,-228 -380,-394 -169,-182 -333,-365 -380,-417l19 697z"/>
  <path class="fil2" d="M6403 2798c0,-227 0,-268 -3,-314 -3,-49 -15,-73 -63,-83 -12,-3 -36,-4 -49,-4 -6,0 -12,-3 -12,-9 0,-9 7,-12 23,-12 33,0 73,0 105,2l60 3c10,0 300,0 333,-1 28,-1 51,-4 63,-7 7,-1 13,-7 20,-7 4,0 6,6 6,13 0,10 -7,27 -12,68 -1,15 -4,78 -7,96 -1,7 -4,16 -10,16 -9,0 -12,-7 -12,-19 0,-10 -1,-35 -9,-52 -10,-23 -25,-41 -103,-50 -25,-3 -183,-4 -199,-4 -6,0 -9,4 -9,15l0 401c0,10 1,14 9,14 19,0 198,0 231,-3 35,-3 55,-6 68,-20 10,-12 16,-19 22,-19 4,0 7,3 7,12 0,9 -7,33 -12,81 -3,29 -6,83 -6,93 0,12 0,28 -10,28 -7,0 -10,-6 -10,-13 0,-15 0,-29 -6,-48 -6,-20 -19,-45 -76,-51 -39,-4 -183,-7 -208,-7 -7,0 -10,4 -10,10l0 128c0,50 -2,218 0,249 4,100 26,119 169,119 38,0 102,0 140,-16 38,-16 55,-45 65,-105 3,-16 6,-22 13,-22 9,0 9,12 9,22 0,12 -12,111 -19,141 -10,38 -22,38 -79,38 -109,0 -189,-3 -246,-4 -57,-3 -92,-4 -113,-4 -3,0 -28,0 -58,2 -29,0 -63,3 -84,3 -16,0 -23,-3 -23,-12 0,-4 3,-9 12,-9 13,0 31,-3 44,-6 29,-6 36,-38 42,-80 7,-61 7,-176 7,-316l0 -256z"/>
  <path class="fil1 str1" d="M6403 2798c0,-227 0,-268 -3,-314 -3,-49 -15,-73 -63,-83 -12,-3 -36,-4 -49,-4 -6,0 -12,-3 -12,-9 0,-9 7,-12 23,-12 33,0 73,0 105,2l60 3c10,0 300,0 333,-1 28,-1 51,-4 63,-7 7,-1 13,-7 20,-7 4,0 6,6 6,13 0,10 -7,27 -12,68 -1,15 -4,78 -7,96 -1,7 -4,16 -10,16 -9,0 -12,-7 -12,-19 0,-10 -1,-35 -9,-52 -10,-23 -25,-41 -103,-50 -25,-3 -183,-4 -199,-4 -6,0 -9,4 -9,15l0 401c0,10 1,14 9,14 19,0 198,0 231,-3 35,-3 55,-6 68,-20 10,-12 16,-19 22,-19 4,0 7,3 7,12 0,9 -7,33 -12,81 -3,29 -6,83 -6,93 0,12 0,28 -10,28 -7,0 -10,-6 -10,-13 0,-15 0,-29 -6,-48 -6,-20 -19,-45 -76,-51 -39,-4 -183,-7 -208,-7 -7,0 -10,4 -10,10l0 128c0,50 -2,218 0,249 4,100 26,119 169,119 38,0 102,0 140,-16 38,-16 55,-45 65,-105 3,-16 6,-22 13,-22 9,0 9,12 9,22 0,12 -12,111 -19,141 -10,38 -22,38 -79,38 -109,0 -189,-3 -246,-4 -57,-3 -92,-4 -113,-4 -3,0 -28,0 -58,2 -29,0 -63,3 -84,3 -16,0 -23,-3 -23,-12 0,-4 3,-9 12,-9 13,0 31,-3 44,-6 29,-6 36,-38 42,-80 7,-61 7,-176 7,-316l0 -256z"/>
  <polygon class="fil2" points="955,2483 2513,2483 2513,2374 955,2374 "/>
  <polygon class="fil2" points="7057,2483 9536,2483 9536,2375 7057,2375 "/>
  <polygon class="fil2" points="4432,3789 6924,3789 6924,3680 4432,3680 "/>
 </g>
</svg>
