<?xml version="1.0" encoding="utf-8"?>
<!-- Generator: Adobe Illustrator 19.0.0, SVG Export Plug-In . SVG Version: 6.00 Build 0)  -->
<svg version="1.1" xmlns="http://www.w3.org/2000/svg" xmlns:xlink="http://www.w3.org/1999/xlink" x="0px" y="0px"
	 viewBox="0 0 276 276" style="enable-background:new 0 0 276 276;" xml:space="preserve">
<style type="text/css">
	.st0{fill:#F7EDCD;}
	.st1{fill:none;}
	.st2{fill:#B7A70F;}
	.st3{fill:#246596;}
	.st4{fill:#E0AE12;}
	.st5{fill:#DD5431;}
</style>
<g id="Layer_1">
</g>
<g id="Layer_2">
	<polygon id="XMLID_1_" class="st0" points="276.2,276 -0.2,276 0.1,0 275.9,0 	"/>
	<g id="XMLID_2_">
		<path id="XMLID_28_" class="st1" d="M275.9,21.8c-9.6-5.6-18.5-13.2-26-21.8h-44.8c14.1,2.6,24.9,14.7,25.6,29.5
			c16.7,0.7,30,14.4,30,31.3c0,16.9-13.3,30.6-30,31.3c-0.7,16.7-14.4,30-31.3,30c-16.9,0-30.6-13.3-31.3-30
			c-16.7-0.7-30-14.4-30-31.3c0-16.9,13.3-30.6,30-31.3c0.6-14.8,11.4-26.9,25.6-29.5h-44.8c-15.2,17.5-36.4,29.7-60.4,33.3
			C90.3,21.4,94.2,10.7,99.9,0H23c5.6,10.7,9.6,21.5,11.4,33.4c-12.3-1.9-23.8-5.8-34.2-11.7L0.2,0H0.1l-0.2,248.3
			c9.2,7.8,17,17.1,22.9,27.7h77.3c14.8-26.4,41.2-45.4,72.3-50.1c-2.9,19-11.1,36.2-23.1,50.1h44.4c1.9-0.3,3.8-0.5,5.8-0.5
			s3.9,0.2,5.8,0.5h44.4c-12-13.9-20.2-31.1-23.1-50.1c18.7,2.9,35.6,10.9,49.6,22.6V276h0.2L275.9,21.8z M61.4,33.9
			c14.9,0,26.9,12,26.9,26.9c0,14.9-12,26.9-26.9,26.9s-26.9-12-26.9-26.9C34.5,46,46.6,33.9,61.4,33.9z M0.1,99.8
			c10.4-5.9,22-10.1,34.3-11.9c-3.7,24.5-16.3,46.1-34.4,61.4L0.1,99.8z M92.7,230.1c-0.7,16.7-14.4,30-31.3,30
			c-16.9,0-30.6-13.3-31.3-30c-16.7-0.7-30-14.4-30-31.3c0-16.9,13.3-30.6,30-31.3c0.7-16.7,14.4-30,31.3-30
			c16.9,0,30.6,13.3,31.3,30c16.7,0.7,30,14.4,30,31.3C122.8,215.7,109.4,229.4,92.7,230.1z M88.5,87.9
			c43.2,6.6,77.3,40.7,83.9,83.9C129.2,165.2,95.1,131.1,88.5,87.9z M199.4,225.7c-14.9,0-26.9-12-26.9-26.9
			c0-14.9,12-26.9,26.9-26.9c14.9,0,26.9,12,26.9,26.9C226.3,213.7,214.3,225.7,199.4,225.7z M226.4,171.8
			c4.7-30.9,23.6-57.1,49.6-72v49.3C262,160.9,245.1,168.9,226.4,171.8z"/>
		<path id="XMLID_35_" class="st2" d="M88.5,87.9c6.6,43.2,40.7,77.3,83.9,83.9C165.8,128.6,131.7,94.4,88.5,87.9z"/>
		<path id="XMLID_36_" class="st2" d="M34.4,87.9c-12.3,1.9-23.9,6-34.3,11.9L0,149.2C18.1,133.9,30.6,112.4,34.4,87.9z"/>
		<path id="XMLID_37_" class="st2" d="M34.4,33.4C32.6,21.5,28.6,10.7,23,0H0.2l0,21.7C10.6,27.6,22.1,31.6,34.4,33.4z"/>
		<path id="XMLID_38_" class="st2" d="M148.9,0h-49c-5.6,10.7-9.6,21.4-11.4,33.3C112.5,29.7,133.6,17.5,148.9,0z"/>
		<path id="XMLID_39_" class="st2" d="M100.1,276h49.2c12-13.9,20.2-31.1,23.1-50.1C141.3,230.6,114.9,249.6,100.1,276z"/>
		<path id="XMLID_40_" class="st2" d="M-0.1,248.3l0,27.7h22.9C16.8,265.4,9.1,256.1-0.1,248.3z"/>
		<path id="XMLID_41_" class="st2" d="M226.4,225.9c2.9,19,11.1,36.2,23.1,50.1H276v-27.5C262,236.8,245.2,228.7,226.4,225.9z"/>
		<path id="XMLID_59_" class="st2" d="M226.4,171.8c18.7-2.9,35.6-10.9,49.6-22.6V99.8C250,114.7,231.1,140.9,226.4,171.8z"/>
		<path id="XMLID_298_" class="st2" d="M275.9,21.8l0-21.8H250C257.4,8.6,266.3,16.2,275.9,21.8z"/>
		<circle id="XMLID_299_" class="st3" cx="199.4" cy="198.8" r="26.9"/>
		<circle id="XMLID_300_" class="st3" cx="61.4" cy="60.8" r="26.9"/>
		<g id="XMLID_7_">
			<path id="XMLID_8_" class="st1" d="M226.3,60.8c0-11.1-6.7-20.6-16.2-24.7c-3.3-1.4-6.9-2.2-10.7-2.2c-11.1,0-20.6,6.7-24.7,16.2
				c-1.4,3.3-2.2,6.9-2.2,10.7c0,11.1,6.7,20.6,16.2,24.7c3.3,1.4,6.9,2.2,10.7,2.2s7.4-0.8,10.7-2.2
				C219.7,81.4,226.3,71.9,226.3,60.8z"/>
			<path id="XMLID_18_" class="st4" d="M230.7,29.5C230.1,14.7,219.3,2.6,205.2,0h-11.5c-14.1,2.6-24.9,14.7-25.6,29.5
				c-16.7,0.7-30,14.4-30,31.3c0,16.9,13.3,30.6,30,31.3c0.7,16.7,14.4,30,31.3,30c16.9,0,30.6-13.3,31.3-30
				c16.7-0.7,30-14.4,30-31.3C260.8,43.9,247.4,30.2,230.7,29.5z M199.4,87.7c-3.8,0-7.4-0.8-10.7-2.2c-9.5-4.1-16.2-13.6-16.2-24.7
				c0-3.8,0.8-7.4,2.2-10.7c4.1-9.5,13.6-16.2,24.7-16.2c3.8,0,7.4,0.8,10.7,2.2c9.5,4.1,16.2,13.6,16.2,24.7
				c0,11.1-6.7,20.6-16.2,24.7C206.8,86.9,203.2,87.7,199.4,87.7z"/>
		</g>
		<path id="XMLID_305_" class="st5" d="M188.7,85.5c3.3,1.4,6.9,2.2,10.7,2.2s7.4-0.8,10.7-2.2c9.5-4.1,16.2-13.6,16.2-24.7
			c0-11.1-6.7-20.6-16.2-24.7c-3.3-1.4-6.9-2.2-10.7-2.2c-11.1,0-20.6,6.7-24.7,16.2c-1.4,3.3-2.2,6.9-2.2,10.7
			C172.5,71.9,179.2,81.4,188.7,85.5z"/>
		<path id="XMLID_306_" class="st4" d="M193.7,276h11.5c-1.9-0.3-3.8-0.5-5.8-0.5S195.5,275.7,193.7,276z"/>
		<g id="XMLID_4_">
			<path id="XMLID_5_" class="st1" d="M86.1,188.1c-4.1-9.5-13.6-16.2-24.7-16.2s-20.6,6.7-24.7,16.2c-1.4,3.3-2.2,6.9-2.2,10.7
				c0,11.1,6.7,20.6,16.2,24.7c3.3,1.4,6.9,2.2,10.7,2.2c11.1,0,20.6-6.7,24.7-16.2c1.4-3.3,2.2-6.9,2.2-10.7S87.5,191.4,86.1,188.1
				z"/>
			<path id="XMLID_13_" class="st4" d="M92.7,167.5c-0.7-16.7-14.4-30-31.3-30c-16.9,0-30.6,13.3-31.3,30c-16.7,0.7-30,14.4-30,31.3
				c0,16.9,13.3,30.6,30,31.3c0.7,16.7,14.4,30,31.3,30c16.9,0,30.6-13.3,31.3-30c16.7-0.7,30-14.4,30-31.3
				C122.8,181.9,109.4,168.2,92.7,167.5z M61.4,225.7c-3.8,0-7.4-0.8-10.7-2.2c-9.5-4.1-16.2-13.6-16.2-24.7c0-3.8,0.8-7.4,2.2-10.7
				c4.1-9.5,13.6-16.2,24.7-16.2s20.6,6.7,24.7,16.2c1.4,3.3,2.2,6.9,2.2,10.7s-0.8,7.4-2.2,10.7C82,219,72.5,225.7,61.4,225.7z"/>
		</g>
		<path id="XMLID_311_" class="st5" d="M61.4,171.9c-11.1,0-20.6,6.7-24.7,16.2c-1.4,3.3-2.2,6.9-2.2,10.7
			c0,11.1,6.7,20.6,16.2,24.7c3.3,1.4,6.9,2.2,10.7,2.2c11.1,0,20.6-6.7,24.7-16.2c1.4-3.3,2.2-6.9,2.2-10.7s-0.8-7.4-2.2-10.7
			C82,178.6,72.5,171.9,61.4,171.9z"/>
	</g>
</g>
</svg>
