<?xml version="1.0" encoding="utf-8"?>
<!-- Generator: Adobe Illustrator 19.0.0, SVG Export Plug-In . SVG Version: 6.00 Build 0)  -->
<svg version="1.1" id="Layer_4_copy" xmlns="http://www.w3.org/2000/svg" xmlns:xlink="http://www.w3.org/1999/xlink" x="0px"
	 y="0px" viewBox="0 0 889 417.2" style="enable-background:new 0 0 889 417.2;" xml:space="preserve">
<style type="text/css">
	.st0{fill:#F7EDCD;stroke:#4A3223;stroke-width:6;stroke-linejoin:round;stroke-miterlimit:1;}
	.st1{fill:url(#XMLID_20_);}
	.st2{fill:#B7A70F;}
	.st3{fill:url(#XMLID_21_);}
	.st4{fill:url(#XMLID_22_);stroke:#B7A70F;stroke-width:6;stroke-linejoin:round;stroke-miterlimit:1;}
	.st5{fill:url(#XMLID_25_);}
	.st6{fill:#DD5431;}
	.st7{fill:url(#XMLID_27_);}
	.st8{fill:url(#XMLID_28_);}
</style>
<path id="Background" class="st0" d="M579.2,414l155.9,0.2l0,0c13.9-0.5,27.2-3.4,39.4-8.4c13.8-5.7,26.4-14.1,37.5-25.2
	c22.3-22.3,33.7-49.8,33.7-81.7c0-2.1,0-4.1-0.1-6.2c-0.2-4.8,3.6-8.7,8.3-8.7H878c4.4,0,8-3.6,8-8v-85c0-4.4-3.6-8-8-8H760.3
	c-6.2,0-11.3-5-11.3-11.3v-38.9c0-23-8.4-43.5-24.4-59.3c-15.9-15.8-36.4-24.1-59.2-24.1c-0.1,0-0.3,0-0.4,0V49H386
	c-3.4,0-6.4-2.2-7.4-5.4C374.6,31.4,361.1,3,322,3c-49.8,0,0,0,0,0H50l0,0C37.5,3.7,26,9.1,17.4,17.7C8.1,27,3,39.6,3,53.4v130.6
	c0,13.7,5.1,26.4,14.5,35.7c8.6,8.6,20,14.2,32.5,14.9l0,0l48.4,0.8c2.9,0,5.5,1.7,6.9,4.3c3.8,7.3,8.1,13.8,14.1,19.8
	c15.4,15.4,39.1,24.5,63.4,24.5h129.8h1.1h105.9h0.9h11.8c5.4,0,9.7,4.4,9.7,9.7V360l0,0c-0.2,1.9,0.2,3.9,0.2,5.9
	c0,15.4,6.4,28.8,18.1,37.7c9.1,6.9,20.6,10.4,34.2,10.4H579.2"/>
<g id="Text">
	<g id="HAkron">
		<g id="XMLID_209_">
			<g id="XMLID_230_">
				<linearGradient id="XMLID_20_" gradientUnits="userSpaceOnUse" x1="447.6479" y1="80.9596" x2="444.0742" y2="202.4627">
					<stop  offset="0" style="stop-color:#246596"/>
					<stop  offset="0.8587" style="stop-color:#246596"/>
					<stop  offset="1" style="stop-color:#246596"/>
				</linearGradient>
				<path id="XMLID_235_" class="st1" d="M429.6,202c-5.2,0-9.4-1.6-12.8-5c-3.2-3.2-4.8-7.5-4.8-13v-51.1c0-14.6,5-26.9,14.7-36.6
					c10.1-10,22-14.8,36.4-14.8c5.2,0,9.5,1.7,12.9,5.2c3.4,3.4,5.2,7.8,5.2,12.9c0,7.6-3.2,17-18.3,18.3c-4.4,0.4-8,1.9-10.9,4.7
					c-2.8,2.6-4.1,6-4.1,10.3v51.1c0,5.3-1.8,9.7-5.2,13.1C439.3,200.3,434.9,202,429.6,202z"/>
				<path id="XMLID_232_" class="st2" d="M463.1,84.4c4.4,0,8,1.4,10.8,4.3c2.8,2.9,4.3,6.5,4.3,10.8c0,9.3-5.2,14.4-15.5,15.3
					c-5.1,0.5-9.3,2.3-12.7,5.5c-3.4,3.2-5,7.4-5,12.5v51.1c0,4.5-1.5,8.1-4.3,10.9c-2.9,2.8-6.6,4.2-11.1,4.2s-7.9-1.4-10.7-4.2
					c-2.8-2.8-3.9-6.4-3.9-10.9v-51.1c0-13.7,4.4-25.1,13.8-34.4C438.2,89.1,449.5,84.4,463.1,84.4 M463.1,78.4
					c-15.1,0-28,5.3-38.5,15.7c-10.4,10.3-15.6,23.3-15.6,38.7v51.1c0,6.3,1.9,11.4,5.7,15.2c4,4,8.9,5.9,14.9,5.9
					c6,0,11.3-2,15.3-5.9c4-3.9,6.1-9.2,6.1-15.2v-51.1c0-3.5,1-6.1,3.2-8.2c2.4-2.3,5.4-3.5,9.1-3.9c13.3-1.2,21-8.9,21-21.3
					c0-6-2-11-6-15C474.2,80.5,469.1,78.4,463.1,78.4L463.1,78.4z"/>
			</g>
			<g id="XMLID_211_">
				<linearGradient id="XMLID_21_" gradientUnits="userSpaceOnUse" x1="545.6862" y1="81.4494" x2="542.1271" y2="202.4587">
					<stop  offset="0" style="stop-color:#246596"/>
					<stop  offset="0.8587" style="stop-color:#246596"/>
					<stop  offset="1" style="stop-color:#246596"/>
				</linearGradient>
				<path id="XMLID_220_" class="st3" d="M543.8,202.5c-17,0-31.4-5.9-43-17.5c-11.6-11.6-17.4-26.1-17.4-43.1
					c0-17,5.9-31.4,17.4-43c11.6-11.6,26-17.4,43-17.4c17,0,31.5,5.9,43.1,17.4c11.6,11.6,17.5,26,17.5,43c0,17-5.9,31.5-17.5,43.1
					C575.3,196.6,560.8,202.5,543.8,202.5z M543.8,117.8c-6.7,0-12.3,2.3-17,7c-4.7,4.7-7,10.3-7,17c0,6.8,2.3,12.4,7,17.1
					c4.7,4.8,10.3,7.1,17,7.1c6.7,0,12.3-2.3,17.1-7.1c4.8-4.8,7.1-10.4,7.1-17.1c0-6.7-2.3-12.3-7.1-17
					C556.2,120.1,550.5,117.8,543.8,117.8z"/>
				<path id="XMLID_212_" class="st2" d="M543.8,84.4c16.2,0,29.9,5.5,41,16.5c11.1,11,16.7,24.7,16.7,40.9s-5.6,29.9-16.7,41
					c-11.1,11.1-24.8,16.7-41,16.7c-16.2,0-29.8-5.6-40.9-16.7c-11-11.1-16.5-24.8-16.5-41s5.5-29.8,16.5-40.9
					C514,89.9,527.6,84.4,543.8,84.4 M543.8,169.1c7.5,0,13.9-2.7,19.3-8c5.3-5.3,8-11.7,8-19.3c0-7.5-2.7-13.9-8-19.1
					c-5.3-5.3-11.7-7.9-19.3-7.9c-7.5,0-13.9,2.6-19.1,7.9c-5.3,5.3-7.9,11.6-7.9,19.1c0,7.5,2.6,13.9,7.9,19.3
					C529.9,166.4,536.3,169.1,543.8,169.1 M543.8,78.4c-17.8,0-33,6.2-45.1,18.3c-12.1,12.1-18.3,27.3-18.3,45.1
					c0,17.8,6.2,33,18.3,45.2c12.1,12.2,27.3,18.4,45.1,18.4c17.8,0,33-6.2,45.2-18.4c12.2-12.2,18.4-27.4,18.4-45.2
					c0-17.8-6.2-33-18.4-45.1C576.8,84.6,561.6,78.4,543.8,78.4L543.8,78.4z M543.8,163.1c-5.9,0-10.8-2-14.9-6.2
					c-4.1-4.2-6.2-9.1-6.2-15c0-5.9,2-10.8,6.1-14.9c4.1-4.1,9-6.1,14.9-6.1c5.9,0,10.8,2,15,6.2c4.2,4.1,6.2,9,6.2,14.9
					c0,5.9-2,10.8-6.2,15C554.6,161,549.7,163.1,543.8,163.1L543.8,163.1z"/>
			</g>
			<linearGradient id="XMLID_22_" gradientUnits="userSpaceOnUse" x1="453.2053" y1="331.0355" x2="449.872" y2="444.3688">
				<stop  offset="0" style="stop-color:#246596"/>
				<stop  offset="0.8587" style="stop-color:#246596"/>
				<stop  offset="1" style="stop-color:#246596"/>
			</linearGradient>
			<path id="XMLID_210_" class="st4" d="M880,218H732.2h-0.9c-5.1,0-9.5-1.7-13-5.2c-3.5-3.5-5.3-7.8-5.3-12.9v-67.1
				c0-13.7-4.7-25.1-14-34.4c-9.4-9.3-20.9-14-34.5-14c-13.7,0-25.1,4.7-34.5,14c-9.4,9.3-14,20.8-14,34.4v51.1
				c0,4.5,1.3,8.1,4.1,10.9c2.8,2.8,6.4,4.2,10.9,4.2c4.5,0,8.1-1.4,10.9-4.2c2.8-2.8,4.1-6.4,4.1-10.9v-51.1
				c0-5.1,1.9-9.4,5.4-12.8c3.5-3.5,7.9-5.2,13-5.2c5,0,9.2,1.8,12.7,5.3c3.5,3.5,5.5,7.8,5.5,12.7l0.4,56.5v10.6
				c0,6.6,0.8,13.1,2.9,18.1H419.5h-0.9c-5.1,0-10.6-1.7-14.1-5.2c-3.5-3.5-5.5-7.8-5.5-12.9v-26.6c0-16.2-6.4-29.2-19.6-39
				c9.9-9.6,14.9-21.2,14.9-34.9c0-4.5-1.4-8.1-4.2-10.9c-2.9-2.8-6.5-4.2-11-4.2C369,84.4,364,89.6,364,100c0,5-1.8,9.2-5.4,12.7
				c-3.6,3.5-7.9,5.2-12.9,5.1l-9.7-0.2V53.8c0-4.5-1.4-8.2-4.2-11c-2.9-2.8-6.5-4.3-11-4.3s-8,1.4-10.8,4.3c-2.8,2.9-4,6.5-4,11
				v130.1c0,4.5,1.2,8.1,4,10.9c2.8,2.8,6.3,4.2,10.8,4.2s8.1-1.4,10.9-4.2c2.8-2.8,4.2-6.4,4.2-10.9V155h14.7c5.1,0,9.4,1.9,13,5.4
				c3.5,3.5,5.3,7.9,5.3,13v26.6c0,6.6,1.1,13.1,3.2,18.1h-59.6h-1.1c-5.1,0-12.2-1.7-15.6-5.2c-3.5-3.5-4.9-7.8-4.9-12.9V95.7
				c0-16.2-5.8-29.8-16.9-40.9c-11.1-11-24.9-16.5-41.1-16.5c-16.2,0-30.1,5.5-41.2,16.5c-11,11-16.8,24.7-16.8,40.9v88.3
				c0,4.5,1.6,8.1,4.4,10.9c2.8,2.8,6.5,4.2,11,4.2s8.3-1.4,11.2-4.2c2.8-2.8,4.4-6.4,4.4-10.9V95.7c0-7.5,2.6-13.9,7.8-19.1
				c5.3-5.3,11.6-7.9,19.1-7.9c7.5,0,13.9,2.6,19.2,7.9c5.3,5.3,8,11.6,8,19.1c0,7.5-2.7,13.9-8,19.3c-5.3,5.3-11.7,8-19.3,8
				c-4.5,0-8.1,1.4-10.9,4.2c-2.8,2.8-4.2,6.4-4.2,10.9s1.4,8.2,4.2,11c2.8,2.9,6.3,4.3,10.8,4.3c9.6,0,19.2-2.3,27.2-6.8v53.4
				c0,6.6,1.2,13.1,3.4,18.1h-81.6c-5.1,0-13.2-1.7-16.7-5.2c-3.5-3.5-5.1-7.8-5.1-12.9V53.4c0-4.5-1.6-8.1-4.5-10.9
				c-2.9-2.8-6.6-4.2-11.1-4.2s-8.3,1.4-11.1,4.2c-2.8,2.8-4.3,6.4-4.3,10.9V97H67V53.4c0-4.5-1.2-8.1-4-10.9
				c-2.9-2.8-6.4-4.2-10.9-4.2s-8.1,1.4-10.9,4.2c-2.8,2.8-4.1,6.4-4.1,10.9v130.6c0,4.5,1.4,8.1,4.2,10.9c2.8,2.8,6.4,4.2,10.9,4.2
				s8-1.4,10.8-4.2c2.8-2.8,4.1-6.4,4.1-10.9V127h62v72.9c0,13.7,4.8,25.4,14.2,34.8c9.4,9.4,25,14.3,38.6,14.3h129.8h1.1h105.9h0.9
				h311.8h0.9H880V218z"/>
		</g>
	</g>
	<g id="_x32_.0">
		<g id="XMLID_192_">
			<linearGradient id="XMLID_25_" gradientUnits="userSpaceOnUse" x1="630.7715" y1="344.9051" x2="630.7715" y2="388.0545">
				<stop  offset="0" style="stop-color:#E0AE12"/>
				<stop  offset="0.8587" style="stop-color:#E0AE12"/>
				<stop  offset="1" style="stop-color:#E0AE12"/>
			</linearGradient>
			<path id="XMLID_166_" class="st5" d="M630.8,380.8c-6.1,0-11.2-2.1-15.4-6.3s-6.3-9.4-6.3-15.4c0-5.9,2.2-11,6.4-15.2
				c4.2-4.2,9.4-6.3,15.3-6.3c5.9,0,11,2.1,15.3,6.3c4.3,4.2,6.4,9.3,6.4,15.2c0,6.1-2.1,11.2-6.3,15.4
				C642,378.7,636.8,380.8,630.8,380.8z"/>
			<path id="XMLID_162_" class="st6" d="M630.8,340.6c5.1,0,9.5,1.8,13.2,5.4c3.7,3.6,5.5,8,5.5,13.1c0,5.3-1.8,9.7-5.4,13.3
				s-8,5.4-13.3,5.4c-5.3,0-9.7-1.8-13.3-5.4c-3.6-3.6-5.4-8-5.4-13.3c0-5.1,1.8-9.5,5.5-13.1C621.3,342.4,625.7,340.6,630.8,340.6
				 M630.8,334.6c-6.7,0-12.5,2.4-17.4,7.1c-4.9,4.8-7.3,10.6-7.3,17.3c0,6.9,2.4,12.8,7.2,17.5c4.7,4.8,10.6,7.2,17.5,7.2
				c6.9,0,12.8-2.4,17.5-7.2c4.8-4.8,7.2-10.6,7.2-17.5c0-6.8-2.5-12.6-7.3-17.3C643.3,337,637.5,334.6,630.8,334.6L630.8,334.6z"/>
		</g>
		<g id="XMLID_26_">
			<linearGradient id="XMLID_27_" gradientUnits="userSpaceOnUse" x1="730.0664" y1="249.26" x2="730.0664" y2="416.4671">
				<stop  offset="0" style="stop-color:#E0AE12"/>
				<stop  offset="0.3942" style="stop-color:#DEAC12"/>
				<stop  offset="0.3994" style="stop-color:#DEAC12"/>
				<stop  offset="0.9224" style="stop-color:#DEAC12"/>
				<stop  offset="1" style="stop-color:#DEAC12"/>
				<stop  offset="1" style="stop-color:#D9A812"/>
				<stop  offset="1" style="stop-color:#CA9C10"/>
				<stop  offset="1" style="stop-color:#B1890E"/>
				<stop  offset="1" style="stop-color:#8E6E0C"/>
				<stop  offset="1" style="stop-color:#614C08"/>
				<stop  offset="1" style="stop-color:#2C2204"/>
				<stop  offset="1" style="stop-color:#000000"/>
			</linearGradient>
			<path id="XMLID_206_" class="st7" d="M730.1,383.3c-23.2,0-43.2-8.2-59.3-24.3c-16.1-16.1-24.3-36.1-24.3-59.3
				c0-23.2,8.2-43.2,24.3-59.3c16.1-16.1,36.1-24.3,59.3-24.3c23.2,0,43.2,8.2,59.3,24.3c16.1,16.1,24.3,36.1,24.3,59.3
				c0,23.2-8.2,43.2-24.3,59.3S753.3,383.3,730.1,383.3z M730.1,252.5c-13.6,0-24.6,4.4-33.7,13.5c-9.1,9.1-13.5,20.1-13.5,33.7
				c0,13.4,4.5,24.4,13.6,33.6c9.2,9.2,20.2,13.6,33.6,13.6c13.4,0,24.4-4.5,33.6-13.6c9.2-9.2,13.6-20.2,13.6-33.6
				s-4.5-24.4-13.6-33.6C754.4,256.9,743.5,252.5,730.1,252.5z"/>
			<path id="XMLID_197_" class="st6" d="M730.1,219.1c22.5,0,41.6,7.8,57.2,23.4c15.6,15.6,23.4,34.7,23.4,57.2s-7.8,41.6-23.4,57.2
				c-15.6,15.6-34.7,23.4-57.2,23.4c-22.5,0-41.6-7.8-57.2-23.4c-15.6-15.6-23.4-34.7-23.4-57.2s7.8-41.6,23.4-57.2
				C688.5,226.9,707.6,219.1,730.1,219.1 M730.1,349.9c14.1,0,26-4.8,35.7-14.5s14.5-21.6,14.5-35.7c0-14.1-4.8-26-14.5-35.7
				c-9.7-9.7-21.6-14.5-35.7-14.5c-14.3,0-26.2,4.8-35.8,14.4c-9.6,9.6-14.4,21.5-14.4,35.8c0,14.1,4.8,26,14.5,35.7
				C704.1,345,716,349.9,730.1,349.9 M730.1,213.1c-24.1,0-44.7,8.5-61.4,25.2c-16.7,16.7-25.2,37.4-25.2,61.4
				c0,24.1,8.5,44.7,25.2,61.4c16.7,16.7,37.4,25.2,61.4,25.2c24.1,0,44.7-8.5,61.4-25.2c16.7-16.7,25.2-37.4,25.2-61.4
				c0-24.1-8.5-44.7-25.2-61.4C774.8,221.5,754.1,213.1,730.1,213.1L730.1,213.1z M730.1,343.9c-12.6,0-22.9-4.2-31.4-12.8
				c-8.6-8.6-12.8-18.9-12.8-31.4c0-12.7,4.1-23,12.7-31.6c8.5-8.5,18.8-12.7,31.6-12.7c12.6,0,22.9,4.2,31.4,12.8
				c8.6,8.6,12.8,18.9,12.8,31.4s-4.2,22.9-12.8,31.4C752.9,339.7,742.6,343.9,730.1,343.9L730.1,343.9z"/>
		</g>
		<g id="XMLID_2_">
			<linearGradient id="XMLID_28_" gradientUnits="userSpaceOnUse" x1="535.8799" y1="255.3842" x2="535.8799" y2="407.0642">
				<stop  offset="0" style="stop-color:#E0AE12"/>
				<stop  offset="0.8587" style="stop-color:#E0AE12"/>
				<stop  offset="1" style="stop-color:#E0AE12"/>
			</linearGradient>
			<path id="XMLID_149_" class="st8" d="M494.6,382.8c-16.8,0-20.3-8.7-20.3-16.1c0-6.9,3.6-12.8,10.8-17.6
				c8.7-5.7,18.6-12.5,29.4-20.4c12-8.6,21.7-16.5,29-23.4c11.8-11.2,17.8-20.9,17.8-28.9c0-6.7-2.3-12.3-7.1-17
				c-4.8-4.7-10.4-7-17.1-7c-6.7,0-12.3,2.3-17,7c-4.7,4.7-7,10.3-7,17c0,5.3-1.7,9.7-5.2,13.2c-3.4,3.4-7.8,5.2-13.2,5.2
				c-5.3,0-9.7-1.7-13.1-5.2c-3.3-3.4-5-7.8-5-13.1c0-17,5.9-31.4,17.4-43c11.6-11.6,26-17.4,43-17.4c17,0,31.5,5.9,43.1,17.4
				c11.6,11.6,17.5,26,17.5,43c0,15.1-6.2,29.8-18.3,43.8c-5.8,6.7-15.3,15.5-28.4,26.1h28.4c5.3,0,9.7,1.7,13.2,5.2
				c3.4,3.4,5.2,7.9,5.2,13.2c0,5.3-1.7,9.7-5.2,13.1c-3.4,3.3-7.8,5-13.1,5H494.6z"/>
			<path id="XMLID_142_" class="st6" d="M536.9,219.1c16.2,0,29.9,5.5,41,16.5c11.1,11,16.7,24.7,16.7,40.9
				c0,14.4-5.9,28.4-17.6,41.9c-6.1,7.1-16.5,16.5-31.1,28.2c-1.2,0.9-0.5,2.8,1,2.8h32.4c4.5,0,8.2,1.4,11,4.3
				c2.8,2.9,4.3,6.5,4.3,11s-1.4,8.1-4.3,10.9c-2.9,2.8-6.5,4.2-11,4.2h-84.7c-11.6,0-17.3-4.4-17.3-13.1c0-5.9,3.2-10.9,9.5-15.1
				c8.7-5.7,18.5-12.5,29.5-20.5c12.2-8.7,21.9-16.6,29.3-23.6c12.5-11.9,18.7-22.2,18.7-31.1c0-7.5-2.7-13.9-8-19.1
				c-5.3-5.3-11.7-7.9-19.3-7.9c-7.5,0-13.9,2.6-19.1,7.9c-5.3,5.3-7.9,11.6-7.9,19.1c0,4.5-1.4,8.2-4.3,11c-2.9,2.9-6.5,4.3-11,4.3
				s-8.1-1.4-10.9-4.3c-2.8-2.8-4.2-6.5-4.2-11c0-16.2,5.5-29.8,16.5-40.9C507.1,224.6,520.7,219.1,536.9,219.1 M536.9,213.1
				c-17.8,0-33,6.2-45.1,18.3c-12.1,12.1-18.3,27.3-18.3,45.1c0,6.1,2,11.2,5.9,15.2c3.9,4,9.1,6.1,15.2,6.1c6.1,0,11.3-2,15.3-6
				c4-4,6-9.1,6-15.3c0-5.9,2-10.8,6.1-14.9c4.1-4.1,9-6.1,14.9-6.1c5.9,0,10.8,2,15,6.2c4.2,4.1,6.2,9,6.2,14.9
				c0,7-5.8,16.2-16.8,26.7c-7.1,6.8-16.8,14.6-28.6,23.1c-10.8,7.9-20.7,14.7-29.3,20.3c-10.1,6.7-12.2,14.6-12.2,20.1
				c0,5.7,2.3,19.1,23.3,19.1h84.7c6.1,0,11.2-2,15.2-5.9c4-3.9,6.1-9.1,6.1-15.2c0-6.1-2-11.3-6-15.3c-4-4-9.2-6-15.3-6h-20
				c10-8.4,17.4-15.4,22.3-21.1c12.6-14.6,19-30,19-45.8c0-17.8-6.2-33-18.4-45.1C569.9,219.2,554.7,213.1,536.9,213.1L536.9,213.1z
				"/>
		</g>
	</g>
</g>
</svg>
